# xmcd CD database file
#
# Track frame offsets:
#	150
#	19627
#	36453
#	49643
#	65429
#	83945
#	101972
#	118579
#	136668
#	153000
#	169647
#	187734
#	204642
#	221861
#	239922
#	257484
#	275394
#	294627
#	311942
#	330929
#
# Disc length: 4608 seconds
#
# Revision: 0
# Processed by: cddbd v1.5.2PL0 Copyright (c) Steve Scherf et al.
# Submitted via: CDex 1.70beta2
#
DISCID=2311fe14
DTITLE=misc - Salsa Mania 4 - CD4
DYEAR=2006
DGENRE=Salsa
TTITLE0=Joe King - Una Mujer secreta
TTITLE1=Orquesta Guyacán - Mujeres bonitas
TTITLE2=La grande de Siempre - Venecia sin ti
TTITLE3=Edward - Tanto
TTITLE4=Orquesta la sensatión - Pedro Navaja
TTITLE5=Roberto Torres - Desde oriente a Occidente
TTITLE6=Pedro Arroyo - Contra Corriente
TTITLE7=Leo Vanelli and Luis Damon - Ni tú ni yo
TTITLE8=Orquesta la Inmensidad - La danca de los milliones
TTITLE9=Cuco Valoy - Yo tengo
TTITLE10=Watussi - Cuidala bien
TTITLE11=Mel - Beatriz
TTITLE12=Andy Montanez - Hay que buscar
TTITLE13=Orquesta Antifaz - Homenaje a Mulenze
TTITLE14=Moncho Rivera - Que te pasa a tí
TTITLE15=Jesús - Alejandro - Asómate a la ventana
TTITLE16=Dominic - Creerte o Quererte
TTITLE17=Miosotis - Soltera y Libre
TTITLE18=Willie Colón - Cayo Condón
TTITLE19=Carlos Oliva y los Sobrinos del Juez - Vehicle
EXTD=YEAR: 2006
EXTT0=
EXTT1=
EXTT2=
EXTT3=
EXTT4=
EXTT5=
EXTT6=
EXTT7=
EXTT8=
EXTT9=
EXTT10=
EXTT11=
EXTT12=
EXTT13=
EXTT14=
EXTT15=
EXTT16=
EXTT17=
EXTT18=
EXTT19=
PLAYORDER=
